<svg preserveAspectRatio="none" overflow="visible" style="display: block;" width="66" height="46" viewBox="0 0 66 46" fill="none" xmlns="http://www.w3.org/2000/svg">
<g id="flag/NP">
<g clip-path="url(#clip0_0_259)">
<path id="Vector" d="M3 3.00047H63V42.9996H3V3.00047Z" fill="white"/>
<path id="Vector_2" d="M3 42.9996V3.00047L35.8616 23.479H13.2668L34.7796 42.9996H3Z" fill="#0052B4"/>
<path id="Vector_3" d="M31.6839 22.2838L4.1952 5.15356V41.8044H31.6839L10.1711 22.2838H31.6839Z" fill="#D80027"/>
<g id="Group">
<path id="Vector_4" d="M14.4847 31.0196L12.7751 30.2153L13.6856 28.5594L11.8289 28.9145L11.5936 27.0389L10.3004 28.4185L9.00715 27.0389L8.77184 28.9145L6.91523 28.5593L7.82578 30.2153L6.1159 31.0196L7.82578 31.8237L6.91523 33.4796L8.77195 33.1246L9.00715 35.0001L10.3004 33.6205L11.5936 35.0001L11.8289 33.1246L13.6855 33.4797L12.7751 31.8238L14.4847 31.0196ZM13.3439 15.4604L12.1003 14.8756L12.7625 13.6711L11.4122 13.9295L11.241 12.5653L10.3004 13.5686L9.35988 12.5653L9.18879 13.9295L7.8382 13.6711L8.50055 14.8756L7.25684 15.4604L10.3004 16.0691L13.3439 15.4604Z" fill="white"/>
<path id="Vector_5" d="M13.9526 15.4604C13.9526 17.4775 12.3175 19.1126 10.3004 19.1126C8.2834 19.1126 6.64828 17.4775 6.64828 15.4604" fill="white"/>
</g>
</g>
<rect x="1.5" y="1.5" width="63" height="43" rx="3.5" stroke="white" stroke-width="3"/>
</g>
<defs>
<clipPath id="clip0_0_259">
<rect x="3" y="3" width="60" height="40" rx="2" fill="white"/>
</clipPath>
</defs>
</svg>
