<svg preserveAspectRatio="none" overflow="visible" style="display: block;" width="155.088" height="19.9153" viewBox="0 0 155.088 19.9153" fill="none" xmlns="http://www.w3.org/2000/svg">
<g id="Group">
<path id="Vector" d="M17.631 3.50034C17.4775 3.58715 17.3039 3.63157 17.1283 3.63157C17.0415 3.63157 16.9566 3.63157 16.8718 3.63157C13.7122 3.62552 10.5223 3.61946 7.41108 3.61139C7.28792 3.61139 7.17284 3.61139 7.03959 3.57302C6.9225 3.5387 6.82357 3.48015 6.72262 3.41756C6.15934 3.06223 5.09333 2.38386 4.80867 2.20216C4.76223 2.17188 4.70772 2.15775 4.65321 2.15775C4.34834 2.15775 3.30253 2.15775 2.88663 2.15775C2.81193 2.15775 2.73925 2.13755 2.67464 2.10121C2.16183 1.80241 1.60259 1.47534 1.0817 1.16645C1.00498 1.12203 0.976715 1.09578 0.950467 1.06348C0.92422 1.02915 0.914123 0.996851 0.908068 0.972624C0.895959 0.920129 0.904034 0.871676 0.918165 0.831298C0.928261 0.798995 0.948446 0.760636 0.98277 0.706125C1.02517 0.637481 1.06757 0.568837 1.10997 0.500193C1.20687 0.342715 1.2836 0.215522 1.44309 0.120632C1.49154 0.0923663 1.53394 0.0721773 1.59451 0.0540067C1.70556 0.0196847 1.80852 0.0156468 1.9781 0.0136279C8.24291 -0.00454263 14.5037 -0.00454263 20.7684 0.0136279C20.9824 0.0136279 21.0995 0.0237225 21.2267 0.0782344C21.3277 0.120632 21.3963 0.1812 21.4448 0.231674C21.5255 0.316469 21.58 0.407322 21.6366 0.502212C21.679 0.570856 21.7213 0.6395 21.7637 0.708144C21.8203 0.801016 21.8647 0.881772 21.8445 0.974645C21.8283 1.05137 21.7819 1.09982 21.6648 1.16846C20.3989 1.91749 18.9372 2.76545 17.6289 3.50842L17.631 3.50034Z" fill="black"/>
<path id="Vector_2" d="M11.7218 14.9317C11.7238 14.756 11.7722 14.5823 11.8591 14.4309C11.9014 14.3563 11.9459 14.2836 11.9882 14.2088C13.5731 11.4772 15.1741 8.71532 16.7348 6.02606C16.7974 5.91906 16.8539 5.82013 16.9548 5.72322C17.0416 5.63843 17.1426 5.5819 17.2496 5.52739C17.8392 5.21647 18.9596 4.633 19.2585 4.47754C19.3069 4.45129 19.3473 4.41293 19.3756 4.36649C19.5249 4.10605 20.0377 3.22377 20.2599 2.83815C20.2982 2.77355 20.3507 2.72105 20.4153 2.6827C20.9301 2.38793 21.4934 2.06692 22.0224 1.77014C22.0991 1.72572 22.1354 1.7136 22.1778 1.70957C22.2203 1.70351 22.2546 1.70957 22.2788 1.71764C22.3313 1.73379 22.3676 1.7661 22.3959 1.79638C22.4181 1.82263 22.4403 1.85695 22.4726 1.9155C22.5109 1.98616 22.5493 2.05683 22.5877 2.12951C22.6765 2.29102 22.7472 2.42226 22.7513 2.60799C22.7513 2.66452 22.7472 2.70894 22.7331 2.77355C22.7068 2.88661 22.6604 2.97746 22.5756 3.12484C19.4603 8.55984 16.329 13.9827 13.1794 19.3975C13.0724 19.5813 13.0038 19.6802 12.8947 19.7629C12.8079 19.8296 12.7191 19.8578 12.6545 19.874C12.5415 19.9002 12.4345 19.9023 12.3254 19.9063C12.2447 19.9083 12.1639 19.9103 12.0832 19.9124C11.9741 19.9144 11.8833 19.9124 11.8106 19.8477C11.752 19.7953 11.7338 19.7306 11.7319 19.5954C11.7157 18.1236 11.7117 16.4357 11.7238 14.9317H11.7218Z" fill="black"/>
<path id="Vector_3" d="M4.77378 4.09802C4.9252 4.18686 5.05038 4.31606 5.13921 4.46749C5.18161 4.54219 5.224 4.61689 5.2664 4.68957C6.84118 7.42725 8.43209 10.1952 9.98063 12.8925C10.0432 12.9995 10.0998 13.0985 10.132 13.2337C10.1603 13.3508 10.1603 13.4659 10.1562 13.5871C10.13 14.2533 10.0755 15.5151 10.0614 15.8523C10.0594 15.9068 10.0715 15.9614 10.0998 16.0098C10.2532 16.2783 10.7923 17.2111 11.0022 17.5744C11.0265 17.6169 11.0385 17.6633 11.0385 17.7097C11.0366 18.3134 11.0325 18.9796 11.0244 19.5974C11.0244 19.6863 11.0164 19.7226 11.0002 19.763C10.984 19.8014 10.9618 19.8276 10.9416 19.8458C10.9013 19.8821 10.8548 19.9003 10.8144 19.9084C10.7822 19.9144 10.7398 19.9164 10.6731 19.9144C10.5924 19.9124 10.5116 19.9104 10.4309 19.9084C10.2471 19.9023 10.0977 19.9003 9.93622 19.8094C9.88774 19.7812 9.84943 19.7549 9.80095 19.7105C9.71612 19.6318 9.65965 19.5449 9.57482 19.3976C6.42528 13.9828 3.29592 8.56188 0.17867 3.12691C0.0736857 2.94116 0.0211933 2.83416 0.00504176 2.69687C-0.00909084 2.58785 0.00907964 2.497 0.029269 2.43239C0.0615721 2.32135 0.114065 2.22646 0.166557 2.12955C0.204917 2.05888 0.243277 1.98823 0.281637 1.91554C0.334129 1.81863 0.380565 1.74192 0.473436 1.71163C0.548137 1.6874 0.612743 1.70355 0.731861 1.77018C2.01389 2.49094 3.47762 3.33284 4.7758 4.096L4.77378 4.09802Z" fill="black"/>
<path id="Vector_4" d="M34.44 9.80762V6.50461H35.8775C35.9845 6.50461 36.0714 6.59142 36.0714 6.69842V10.1346C36.0714 10.9362 35.8715 11.5883 35.4737 12.0931C35.076 12.5958 34.5087 12.9692 33.7717 13.2095C33.0348 13.4498 32.1587 13.5709 31.1471 13.5709C30.1357 13.5709 29.2695 13.4498 28.5326 13.2095C27.7957 12.9692 27.2284 12.5958 26.8307 12.0931C26.4329 11.5903 26.2331 10.9382 26.2331 10.1346V6.69842C26.2331 6.59142 26.3199 6.50461 26.4269 6.50461H27.8643V9.80762C27.8643 10.3648 27.9814 10.817 28.2156 11.1643C28.4498 11.5116 28.8112 11.766 29.2958 11.9295C29.7824 12.0931 30.3982 12.1738 31.1471 12.1738C31.8962 12.1738 32.5301 12.0931 33.0127 11.9295C33.4952 11.766 33.8545 11.5116 34.0887 11.1643C34.3229 10.817 34.44 10.3648 34.44 9.80762Z" fill="black"/>
<path id="Vector_5" d="M39.0712 12.0607H46.3414V13.264C46.3414 13.371 46.2546 13.4579 46.1476 13.4579H37.4399V6.69842C37.4399 6.59142 37.5267 6.50461 37.6338 6.50461H39.0712V12.0607Z" fill="black"/>
<path id="Vector_6" d="M49.2891 7.89961H45.1301V6.69629C45.1301 6.58929 45.2169 6.50248 45.3239 6.50248H55.0815V7.70576C55.0815 7.81277 54.9947 7.89961 54.8877 7.89961H50.9325V13.4557H49.2911V7.89961H49.2891Z" fill="black"/>
<path id="Vector_7" d="M57.6296 13.4579H56.1921V6.69842C56.1921 6.59142 56.279 6.50461 56.386 6.50461H63.002C63.4301 6.50461 63.8157 6.547 64.1589 6.6318C64.5021 6.7166 64.7949 6.85187 65.0351 7.03559C65.2774 7.21931 65.4611 7.45957 65.5903 7.75837C65.7195 8.05715 65.7842 8.42059 65.7842 8.84858C65.7842 9.34525 65.6913 9.75914 65.5035 10.0923C65.3158 10.4254 65.0432 10.6798 64.6818 10.8575C64.3224 11.0351 63.8763 11.1361 63.3453 11.1643L62.7234 11.1744L65.6812 13.4579H63.6804C63.636 13.4579 63.5916 13.4417 63.5572 13.4134L60.9286 11.2552H57.8194V13.262C57.8194 13.369 57.7326 13.4558 57.6256 13.4558L57.6296 13.4579ZM57.8255 7.89971V10.0216H62.8628C63.3048 10.0216 63.6218 9.94086 63.8157 9.77731C64.0095 9.61376 64.1064 9.34525 64.1064 8.97179C64.1064 8.57803 64.0095 8.30146 63.8157 8.13995C63.6218 7.98047 63.3048 7.89971 62.8628 7.89971H57.8255Z" fill="black"/>
<path id="Vector_8" d="M73.0965 6.5894C73.0602 6.53489 72.9996 6.50461 72.935 6.50461H70.9706C70.9059 6.50461 70.8454 6.53691 70.8091 6.5894L66.1756 13.4579H68.029C68.0936 13.4579 68.1562 13.4255 68.1925 13.371L69.1071 11.98H74.7803L75.6949 13.371C75.7313 13.4255 75.7918 13.4579 75.8585 13.4579H77.732L73.1005 6.5894H73.0965ZM69.8642 10.8271L71.9437 7.6655L74.0232 10.8271H69.8662H69.8642Z" fill="black"/>
<path id="Vector_9" d="M80.8029 13.371L76.2122 6.50461H78.0959C78.1604 6.50461 78.2211 6.53691 78.2574 6.59142L81.9621 12.1233L85.6569 6.59142C85.6929 6.53691 85.754 6.50461 85.8182 6.50461H87.6715L83.0908 13.371C83.054 13.4255 82.9937 13.4579 82.9295 13.4579H80.965C80.9 13.4579 80.8397 13.4255 80.8029 13.371Z" fill="black"/>
<path id="Vector_10" d="M90.0581 13.4579H88.62V6.69842C88.62 6.59142 88.7069 6.50461 88.8143 6.50461H90.2516V13.264C90.2516 13.371 90.1646 13.4579 90.0581 13.4579Z" fill="black"/>
<path id="Vector_11" d="M97.106 13.5891C95.8223 13.5891 94.7664 13.4618 93.9408 13.2074C93.1152 12.953 92.5051 12.5573 92.1095 12.0244C91.7155 11.4914 91.5181 10.809 91.5181 9.97916C91.5181 9.14935 91.7155 8.46093 92.1095 7.92994C92.5035 7.39895 93.1152 7.00728 93.9408 6.7529C94.7664 6.49851 95.8223 6.37131 97.106 6.37131C98.3906 6.37131 99.4543 6.49851 100.278 6.7529C101.1 7.00728 101.709 7.40097 102.103 7.92994C102.497 8.46093 102.695 9.14332 102.695 9.97916C102.695 10.815 102.497 11.4893 102.103 12.0244C101.709 12.5573 101.1 12.9511 100.278 13.2074C99.4567 13.4618 98.3985 13.5891 97.106 13.5891ZM97.106 12.1818C97.8533 12.1818 98.4791 12.1394 98.982 12.0546C99.4849 11.9699 99.8882 11.8386 100.189 11.663C100.492 11.4873 100.71 11.2592 100.841 10.9806C100.975 10.702 101.039 10.3688 101.039 9.98119C101.039 9.59355 100.972 9.25235 100.841 8.97774C100.708 8.7032 100.49 8.47503 100.189 8.29534C99.8867 8.11566 99.4849 7.98446 98.982 7.9037C98.4791 7.82293 97.8533 7.78053 97.106 7.78053C96.1128 7.78053 95.3296 7.85522 94.7499 8.00467C94.1727 8.15404 93.7607 8.39028 93.5171 8.7133C93.2727 9.03632 93.1489 9.46031 93.1489 9.98323C93.1489 10.5061 93.2727 10.9301 93.5171 11.2531C93.7607 11.5762 94.1727 11.8123 94.7499 11.9618C95.328 12.1112 96.1128 12.1859 97.106 12.1859V12.1818Z" fill="black"/>
<path id="Vector_12" d="M105.591 12.0607H112.862V13.264C112.862 13.371 112.775 13.4579 112.667 13.4579H103.96V6.69842C103.96 6.59142 104.047 6.50461 104.154 6.50461H105.591V12.0607Z" fill="black"/>
<path id="Vector_13" d="M122.834 13.4579H114.088C113.981 13.4579 113.894 13.371 113.894 13.264V6.69842C113.894 6.59142 113.981 6.50461 114.088 6.50461H122.834C122.941 6.50461 123.028 6.59142 123.028 6.69842V7.79875H115.523V9.19385C115.523 9.30084 115.61 9.38763 115.717 9.38763H122.823V10.4577H115.717C115.61 10.4577 115.523 10.5445 115.523 10.6515V12.1596H123.028V13.26C123.028 13.367 122.941 13.4538 122.834 13.4538V13.4579Z" fill="black"/>
<path id="Vector_14" d="M128.2 7.89961H124.041V6.69629C124.041 6.58929 124.128 6.50248 124.235 6.50248H133.992V7.70576C133.992 7.81277 133.905 7.89961 133.798 7.89961H129.843V13.4557H128.201V7.89961H128.2Z" fill="black"/>
<path id="Vector_15" d="M139.05 7.89961H134.891V6.69629C134.891 6.58929 134.978 6.50248 135.085 6.50248H144.842V7.70576C144.842 7.81277 144.755 7.89961 144.648 7.89961H140.693V13.4557H139.051V7.89961H139.05Z" fill="black"/>
<path id="Vector_16" d="M154.894 13.4579H146.148C146.041 13.4579 145.954 13.371 145.954 13.264V6.69842C145.954 6.59142 146.041 6.50461 146.148 6.50461H154.894C155.001 6.50461 155.088 6.59142 155.088 6.69842V7.79875H147.584V9.19385C147.584 9.30084 147.671 9.38763 147.777 9.38763H154.884V10.4577H147.777C147.671 10.4577 147.584 10.5445 147.584 10.6515V12.1596H155.088V13.26C155.088 13.367 155.001 13.4538 154.894 13.4538V13.4579Z" fill="black"/>
</g>
</svg>
